<?xml version="1.0" encoding="UTF-8" standalone="no"?>
<svg width="100px" height="100px" viewBox="0 0 100 100" version="1.1" xmlns="http://www.w3.org/2000/svg" xmlns:xlink="http://www.w3.org/1999/xlink">
    <!-- Generator: sketchtool 3.8.3 (29802) - http://www.bohemiancoding.com/sketch -->
    <title>FE04F26F-2B34-464B-B1AB-B93F25FB3394</title>
    <desc>Created with sketchtool.</desc>
    <defs>
        <polygon id="path-1" points="0 100 100 100 100 0 0 0"></polygon>
    </defs>
    <g id="rooomy-ui-v2" stroke="none" stroke-width="1" fill="none" fill-rule="evenodd">
        <g id="Landing-Page" transform="translate(-790.000000, -870.000000)">
            <g id="roOomy_Icon_circle" transform="translate(790.000000, 870.000000)">
                <mask id="mask-2" fill="white">
                    <use xlink:href="#path-1"></use>
                </mask>
                <g id="Clip-2"></g>
                <path d="M71.6544216,45.4999478 L65.3138419,45.4999478 C64.6088681,45.4999478 64.040309,44.953358 63.9760103,44.2519983 C63.3159576,37.0556908 57.0042242,31.4944227 49.5135344,32.0365025 C42.4116095,32.5504223 37.0083156,38.6526702 37.0083156,45.7666977 L37.0082055,66.6499705 C37.0082055,67.3955502 36.4033132,68 35.6570518,68 L29.3512639,68 C28.6050024,68 28,67.3955502 28,66.6499705 L28,45.8570077 C28,33.8348919 37.3000821,23.6564854 49.3170049,23.0313557 C61.8185903,22.3810359 72.2429089,31.9279326 72.9974279,44.0867783 C73.0451014,44.8540281 72.4238041,45.4999478 71.6544216,45.4999478" id="Fill-1" fill="#FF6600" mask="url(#mask-2)"></path>
                <path d="M50,90.9091111 C27.4067778,90.9091111 9.09088889,72.5931111 9.09088889,50 C9.09088889,27.4067778 27.4068889,9.09088889 50,9.09088889 C72.5932222,9.09088889 90.9091111,27.4067778 90.9091111,50 C90.9091111,72.5931111 72.5931111,90.9091111 50,90.9091111 L50,90.9091111 Z M50,0 C22.3863333,0 0,22.3863333 0,50 C0,77.6136667 22.3863333,100 50,100 C77.6136667,100 100,77.6136667 100,50 C100,22.3863333 77.6136667,0 50,0 L50,0 Z" id="Fill-3" fill="#FF6600" mask="url(#mask-2)"></path>
            </g>
        </g>
    </g>
</svg>